<svg width="97" height="100" viewBox="0 0 97 100" fill="none" xmlns="http://www.w3.org/2000/svg">
<path d="M15.9636 73.7813C16.7062 72.9701 17.4843 72.2283 18.3775 71.6749C19.8018 70.7925 21.3174 70.1872 22.8797 69.5633C23.3455 69.3772 23.8154 69.1895 24.2883 68.9924C28.2153 67.355 30.7327 64.2217 31.9572 60.0473C32.6802 57.5827 33.2268 55.0587 33.7676 52.5619C33.7964 52.4286 33.8253 52.2954 33.8541 52.1622C34.5232 49.0759 35.7512 46.601 37.5032 44.6988C39.2544 42.7973 41.5518 41.4436 44.3985 40.6335C49.0684 39.3046 53.4719 40.0421 57.5291 42.8325L57.8125 42.4205L57.5291 42.8325C60.56 44.917 62.4602 47.8982 63.2512 51.6789C63.4245 52.5074 63.5909 53.3433 63.7579 54.182C64.0864 55.8321 64.417 57.4928 64.8068 59.1293C66.1016 64.5651 69.4682 67.9465 74.4375 69.6052C77.0593 70.4803 79.4468 71.6859 81.279 73.8273C82.9246 75.7507 83.7239 78.1083 83.9666 80.6969C84.2546 83.7699 84.0723 86.719 82.6259 89.4195C80.0078 94.3079 76.1297 97.3395 70.969 98.3487C66.13 99.2949 61.249 99.2636 56.4376 98.1581C54.3523 97.679 52.297 96.9114 50.2853 96.0545C49.7369 95.8208 49.2082 95.6609 48.6586 95.6404C48.1011 95.6197 47.5566 95.7436 46.9767 96.0258C43.2787 97.8252 39.3649 98.7221 35.2848 98.8979C32.0301 99.0381 28.8144 98.9136 25.6467 98.2309C23.4221 97.7514 21.3853 96.7642 19.5415 95.3431C16.9466 93.3432 14.9909 90.8237 13.8541 87.6181C13.0375 85.3152 12.9674 82.9446 13.2796 80.495C13.5485 78.3849 14.0054 76.4098 15.166 74.7532C15.4006 74.4184 15.6698 74.1023 15.9636 73.7813Z" fill="black" stroke="black"/>
<path d="M42.6629 5.35803L42.6629 5.35804L42.6646 5.36222C43.5218 7.45815 43.8258 9.65434 43.9516 11.8828C44.1971 16.2355 44.1315 20.5906 43.2797 24.8213C42.096 30.7002 37.7236 34.5928 32.0525 35.2713C28.9426 35.6434 26.0761 35.0947 23.4479 33.3256C20.7929 31.5385 19.1483 28.9159 18.3832 25.7145C16.6922 18.6381 18.5744 12.5611 23.2853 7.3839C26.4739 3.87977 30.5181 2.06532 35.0329 1.10931L34.9295 0.620945L35.0329 1.10931C36.9422 0.705019 38.4595 0.848121 39.6752 1.51358C40.8928 2.18011 41.8885 3.41474 42.6629 5.35803Z" fill="black" stroke="black"/>
<path d="M77.9078 13.4995L77.911 13.5079L77.9144 13.5162C78.8232 15.6915 79.3055 17.8941 79.4153 20.2258C79.5788 23.6972 78.9145 26.8966 77.1326 29.7703C75.2454 32.8138 72.5828 34.6287 69.2059 35.1652C64.6143 35.8947 60.5326 34.8332 57.2305 31.278C55.1052 28.9896 53.8948 26.2073 53.6834 22.9541C53.6256 22.0658 53.5484 21.1944 53.4718 20.3299C53.3468 18.9201 53.2235 17.5289 53.1891 16.1134C53.0969 12.3131 53.2404 8.57716 54.6657 5.12445L54.2036 4.93366L54.6657 5.12445C55.4414 3.24554 56.3893 2.08656 57.5546 1.46696C58.7208 0.84685 60.1901 0.721505 62.1041 1.09039C66.5686 1.95079 70.5289 3.86629 73.8041 7.18241C75.5603 8.96052 76.9787 11.0308 77.9078 13.4995Z" fill="black" stroke="black"/>
<path d="M89.9529 35.6894L89.8703 35.1969L89.9529 35.6894C90.6197 35.5776 91.1515 35.7656 91.6414 36.1282C92.1528 36.5067 92.5959 37.0579 93.065 37.6551C95.1979 40.3701 96.1304 43.5831 96.2648 47.1281C96.4111 50.9857 95.7007 54.6349 94.0138 58.0487C93.0785 59.9416 91.6797 61.3745 89.8835 62.4921C86.5794 64.3679 83.2713 64.5276 79.9982 62.824C76.6961 61.1053 74.6348 58.2728 74.0307 54.3498C73.4671 50.6895 74.453 47.5172 76.7872 44.7668C79.6622 41.3792 83.0165 38.6617 86.8699 36.6804C87.8185 36.1928 88.8912 35.8674 89.9529 35.6894Z" fill="black" stroke="black"/>
<path d="M1.85857 42.0697L1.3813 41.9206L1.85857 42.0697C2.51212 39.977 3.58244 38.1776 5.08099 36.6421L4.72316 36.2929L5.08099 36.6421C5.6113 36.0987 6.14733 35.8107 6.69615 35.7028C7.24976 35.5939 7.86057 35.6597 8.55027 35.8983C11.3592 36.87 13.8293 38.5251 16.0985 40.5337C17.8898 42.1193 19.6492 43.7544 21.1041 45.6137C23.1247 48.1959 23.6993 51.3284 23.1861 54.7796C22.5138 57.665 21.1926 59.995 18.9966 61.6791C15.8947 64.058 12.5511 64.6242 8.94349 63.2564C5.61054 61.9926 3.49746 59.4153 2.29456 55.9048C0.72891 51.3358 0.405524 46.7222 1.85857 42.0697Z" fill="black" stroke="black"/>
</svg>
